# xmcd CD database file
#
# Track frame offsets:
#	150
#	42081
#	90659
#	132135
#	171597
#	209419
#
# Disc length: 3348 seconds
#
# Revision: 0
# Processed by: cddbd v1.5.1PL0 Copyright (c) Steve Scherf et al.
# Submitted via: CDex 1.51
#
DISCID=4f0d1206
DTITLE=Osamu Kitajima - Breath Of Jade
DYEAR=2000
DGENRE=New Age
TTITLE0=The Elysian Fields
TTITLE1=Circle Of Fire
TTITLE2=Waves Forgotten
TTITLE3=Land Of Nod
TTITLE4=Stream Of Innocence
TTITLE5=Cachet
EXTD=YEAR: 2000
EXTT0=
EXTT1=
EXTT2=
EXTT3=
EXTT4=
EXTT5=
PLAYORDER=
